<?xml version="1.0" standalone="no"?><!DOCTYPE svg PUBLIC "-//W3C//DTD SVG 1.1//EN" "http://www.w3.org/Graphics/SVG/1.1/DTD/svg11.dtd"><svg t="1657500647591" class="icon" viewBox="0 0 1024 1024" version="1.1" xmlns="http://www.w3.org/2000/svg" p-id="3294" xmlns:xlink="http://www.w3.org/1999/xlink" width="200" height="200"><defs><style type="text/css">@font-face { font-family: feedback-iconfont; src: url("//at.alicdn.com/t/font_1031158_u69w8yhxdu.woff2?t=1630033759944") format("woff2"), url("//at.alicdn.com/t/font_1031158_u69w8yhxdu.woff?t=1630033759944") format("woff"), url("//at.alicdn.com/t/font_1031158_u69w8yhxdu.ttf?t=1630033759944") format("truetype"); }
</style></defs><path d="M741.267 127.959h-120.189v120.189h35.349v130.288l-126.249 78.778v-367.635l22.22 22.22c5.050 5.050 11.109 7.069 18.18 7.069s13.13-2.020 18.18-7.069c10.1-10.1 10.1-26.259 0-35.349l-65.65-65.65c-1.009-1.009-2.020-2.020-4.041-3.028-1.009 0-1.009-1.009-2.020-1.009s-2.020-1.009-3.028-1.009c0-1.009-1.009-1.009-2.020-1.009s-1.009-1.009-2.020-1.009h-10.1c-1.009 0-1.009 0-2.020 1.009-1.009 0-2.020 0-3.028 1.009-1.009 0-2.020 1.009-2.020 1.009-1.009 0-1.009 1.009-2.020 1.009-1.009 1.009-3.028 2.020-4.041 3.028l-61.609 61.609c-10.1 10.1-10.1 26.259 0 35.349 5.050 5.050 11.109 7.069 18.18 7.069s13.13-2.020 18.18-7.069l19.188-19.188v567.613l-126.249-78.778v-134.329c20.201-9.090 35.349-30.299 35.349-54.54 0-33.329-27.27-60.601-60.601-60.601s-60.601 27.27-60.601 60.601c0 24.238 14.141 45.45 35.349 54.54v163.617l176.747 110.087v125.238c-32.319 10.1-54.54 40.398-54.54 75.748 0 44.441 36.357 79.789 79.789 79.789 44.441 0 79.789-36.357 79.789-79.789 0-35.349-23.23-65.65-54.54-75.748v-326.225l176.747-110.087v-157.558h35.349v-120.189z" fill="" p-id="3295"></path></svg>