<?xml version="1.0" standalone="no"?><!DOCTYPE svg PUBLIC "-//W3C//DTD SVG 1.1//EN" "http://www.w3.org/Graphics/SVG/1.1/DTD/svg11.dtd"><svg t="1657501163777" class="icon" viewBox="0 0 1024 1024" version="1.1" xmlns="http://www.w3.org/2000/svg" p-id="5916" xmlns:xlink="http://www.w3.org/1999/xlink" width="200" height="200"><defs><style type="text/css">@font-face { font-family: feedback-iconfont; src: url("//at.alicdn.com/t/font_1031158_u69w8yhxdu.woff2?t=1630033759944") format("woff2"), url("//at.alicdn.com/t/font_1031158_u69w8yhxdu.woff?t=1630033759944") format("woff"), url("//at.alicdn.com/t/font_1031158_u69w8yhxdu.ttf?t=1630033759944") format("truetype"); }
</style></defs><path d="M229.76 355.2c-6.50666667 0-13.01333333-1.81333333-18.88-5.65333333-15.68-10.45333333-19.94666667-31.57333333-9.6-47.36 69.54666667-104.74666667 186.02666667-167.25333333 311.68-167.25333334 124.37333333 0 240.21333333 61.65333333 309.97333333 164.8 10.56 15.57333333 6.4 36.8-9.17333333 47.36-15.57333333 10.56-36.8 6.4-47.36-9.17333333-57.06666667-84.48-151.78666667-134.82666667-253.44-134.82666667-102.61333333 0-197.86666667 51.09333333-254.72 136.74666667-6.61333333 9.92-17.38666667 15.36-28.48 15.36z" p-id="5917" fill="#d81e06"></path><path d="M699.09333333 790.82666667c-13.22666667 0-25.92-7.78666667-31.46666666-20.8L511.46666667 403.94666667 356.69333333 769.92c-7.36 17.38666667-27.41333333 25.49333333-44.69333333 18.13333333-17.38666667-7.36-25.49333333-27.41333333-18.13333333-44.69333333L473.81333333 317.86666667l0.96-1.70666667c7.46666667-13.12 21.44-21.22666667 36.58666667-21.33333333 15.04 0 29.12 8.10666667 36.58666667 21.22666666l0.96 1.70666667 0.74666666 1.81333333 180.69333334 423.68c7.36 17.38666667-0.64 37.44-18.02666667 44.8-4.26666667 1.92-8.85333333 2.77333333-13.22666667 2.77333334zM369.38666667 602.13333333h275.52" p-id="5918" fill="#d81e06"></path><path d="M369.38666667 568h275.62666666v68.26666667H369.38666667z" p-id="5919" fill="#d81e06"></path></svg>