<?xml version="1.0" standalone="no"?><!DOCTYPE svg PUBLIC "-//W3C//DTD SVG 1.1//EN" "http://www.w3.org/Graphics/SVG/1.1/DTD/svg11.dtd"><svg t="1657501190351" class="icon" viewBox="0 0 1024 1024" version="1.1" xmlns="http://www.w3.org/2000/svg" p-id="7129" xmlns:xlink="http://www.w3.org/1999/xlink" width="200" height="200"><defs><style type="text/css">@font-face { font-family: feedback-iconfont; src: url("//at.alicdn.com/t/font_1031158_u69w8yhxdu.woff2?t=1630033759944") format("woff2"), url("//at.alicdn.com/t/font_1031158_u69w8yhxdu.woff?t=1630033759944") format("woff"), url("//at.alicdn.com/t/font_1031158_u69w8yhxdu.ttf?t=1630033759944") format("truetype"); }
</style></defs><path d="M800 544h-102.4L640 313.6c-6.4-12.8-19.2-25.6-32-25.6s-25.6 6.4-32 19.2L486.4 588.8 448 441.6c-6.4-12.8-19.2-25.6-32-25.6s-25.6 6.4-32 19.2l-51.2 108.8H224c-19.2 0-32 19.2-32 32 0 19.2 12.8 32 32 32h128c12.8 0 25.6-6.4 25.6-19.2l25.6-51.2 44.8 172.8c6.4 12.8 12.8 25.6 32 25.6 12.8 0 25.6-6.4 32-19.2l89.6-281.6 38.4 147.2c6.4 12.8 19.2 25.6 32 25.6h128c19.2 0 32-19.2 32-32 0-19.2-12.8-32-32-32z" p-id="7130" fill="#d81e06"></path><path d="M512 1024c-281.6 0-512-230.4-512-512s230.4-512 512-512c108.8 0 211.2 32 300.8 96 12.8 12.8 19.2 32 6.4 44.8s-32 19.2-44.8 6.4C697.6 89.6 608 64 512 64 262.4 64 64 262.4 64 512s198.4 448 448 448 448-198.4 448-448c0-76.8-19.2-153.6-57.6-224-6.4-12.8-6.4-32 12.8-44.8 12.8-6.4 32-6.4 44.8 12.8 38.4 76.8 64 166.4 64 256 0 281.6-230.4 512-512 512z" p-id="7131" fill="#d81e06"></path></svg>