<?xml version="1.0" standalone="no"?><!DOCTYPE svg PUBLIC "-//W3C//DTD SVG 1.1//EN" "http://www.w3.org/Graphics/SVG/1.1/DTD/svg11.dtd"><svg t="1657501178729" class="icon" viewBox="0 0 1024 1024" version="1.1" xmlns="http://www.w3.org/2000/svg" p-id="6497" xmlns:xlink="http://www.w3.org/1999/xlink" width="200" height="200"><defs><style type="text/css">@font-face { font-family: feedback-iconfont; src: url("//at.alicdn.com/t/font_1031158_u69w8yhxdu.woff2?t=1630033759944") format("woff2"), url("//at.alicdn.com/t/font_1031158_u69w8yhxdu.woff?t=1630033759944") format("woff"), url("//at.alicdn.com/t/font_1031158_u69w8yhxdu.ttf?t=1630033759944") format("truetype"); }
</style></defs><path d="M220.95644445 349.75288889c-6.94044445 0-13.88088889-1.93422222-20.13866667-6.03022222-16.72533333-11.15022222-21.27644445-33.67822222-10.24-50.51733334 71.90755555-108.31644445 192.39822222-173.056 322.33244444-173.056 128.68266667 0 248.49066667 63.71555555 320.62577778 170.43911112 11.264 16.61155555 6.82666667 39.25333333-9.78488889 50.51733333-16.61155555 11.264-39.25333333 6.82666667-50.51733333-9.78488889-58.59555555-86.69866667-155.87555555-138.35377778-260.20977778-138.35377778-105.472 0-203.20711111 52.56533333-261.68888889 140.51555556-6.94044445 10.46755555-18.54577778 16.27022222-30.37866666 16.27022222zM511.54488889 797.92355555c-15.36 0-29.696-8.30577778-37.31911111-21.61777777l-1.024-1.82044445L327.11111111 428.94222222c-7.85066667-18.54577778 0.79644445-39.936 19.34222222-47.67288889 18.54577778-7.85066667 39.936 0.79644445 47.67288889 19.34222222l117.53244445 277.84533334L630.21511111 400.49777778c7.85066667-18.54577778 29.24088889-27.07911111 47.78666667-19.22844445 18.54577778 7.85066667 27.07911111 29.24088889 19.22844444 47.78666667L549.888 774.48533333l-1.024 1.82044445c-7.73688889 13.312-21.95911111 21.61777778-37.31911111 21.61777777z" p-id="6498" fill="#d81e06"></path></svg>